<svg xmlns="http://www.w3.org/2000/svg" version="1.1" xmlns:xlink="http://www.w3.org/1999/xlink" xmlns:svgjs="http://svgjs.dev/svgjs" width="1500" height="1500" viewBox="0 0 1500 1500"><rect width="1500" height="1500" fill="#000000"></rect><g transform="matrix(0.6666666666666666,0,0,0.6666666666666666,249.39436519522388,457.72019240019245)"><svg viewBox="0 0 396 231" data-background-color="#000000" preserveAspectRatio="xMidYMid meet" height="875" width="1500" xmlns="http://www.w3.org/2000/svg" xmlns:xlink="http://www.w3.org/1999/xlink"><g id="tight-bounds" transform="matrix(1,0,0,1,0.24008861730862918,0.24280380952382075)"><svg viewBox="0 0 395.52 230.51439238095236" height="230.51439238095236" width="395.52"><g><svg viewBox="0 0 395.52 230.51439238095236" height="230.51439238095236" width="395.52"><g><svg viewBox="0 0 395.52 230.51439238095236" height="230.51439238095236" width="395.52"><g id="textblocktransform"><svg viewBox="0 0 395.52 230.51439238095236" height="230.51439238095236" width="395.52" id="textblock"><g><svg viewBox="0 0 395.52 230.51439238095236" height="230.51439238095236" width="395.52"><path d="M394.594 49.441C392.735 25.514 387.435 18.862 387.435 18.862 371.165-5.783 350.86-0.471 332.619 3.07 300.414 3.213 268.339 8.477 236.208 11.301 168.767 11.731 100.749 4.649 33.643 22.116 27.339 27.476-6.54 23.169 1.121 52.504 3.129 64.707 10.456 78.249 10.232 89.447 11.236 91.409 12.631 86.911 13.226 89.735 15.309 97.343 18.711 93.754 21.501 98.253 17.614 110.264 20.403 120.266 23.062 130.746 18.377 133.474 12.371 132.182 9.675 141.226 9.396 147.782 7.89 146.538 6.235 146.251 5.026 146.059 2.59 146.777 2.999 148.835 4.394 155.87-1.594 159.937 2.162 166.828-0.422 174.294 3.948 180.754 3.353 188.841 3.278 190.469 3.687 191.856 4.338 192.239 7.22 194.297 3.018 198.317 3.464 202.671 33.029 232.437 65.104 211.86 95.394 225.546 103.259 215.975 97.346 228.944 100.489 226.934 102.943 224.589 104.728 234.303 107.499 228.8 107.927 227.221 107.276 223.488 108.8 224.206 109.6 224.589 110.307 224.493 110.418 222.292 110.586 218.99 109.117 221.048 108.726 219.325 112.947 210.615 111.906 231.336 115.866 230.475 115.68 227.939 114.528 224.302 116.889 224.78 119.232 221.143 119.306 218.128 121.389 226.312 121.463 228.082 121.835 229.326 122.43 230.188 128.938 221.287 135.409 233.346 142.233 229.326 146.417 224.924 150.433 231.719 154.672 230.044 156.16 228.704 157.666 226.312 159.098 230.331 176.632 231.193 195.319 227.604 211.943 230.475 256.364 225.115 303.836 232.676 350.674 225.594 361.719 222.866 373.192 218.99 383.958 215.879 383.958 215.879 392.679 207.361 392.679 169.077S394.538 135.579 394.817 105.096C395.096 74.612 396.398 73.368 394.538 49.441Z" opacity="1" fill="#deddf1" data-fill-palette-color="tertiary"></path><g transform="matrix(1,0,0,1,55.76832,26.230666666666668)"><svg width="283.98335999999995" viewBox="0.75 -35.2 56.7 35.550000000000004" height="178.05305904761903" data-palette-color="#000000"><path d="M23.2-34.75L29.5-34.75 18-12.6 18 0 12.3 0 12.3-12.6 0.75-34.75 7.1-34.75 15.15-17.7 23.2-34.75ZM45.45 0.35Q41.95 0.35 39.15-0.88 36.35-2.1 34.75-4.35 33.15-6.6 33.15-9.6L33.15-9.6 39.25-9.6Q39.45-7.35 41.02-5.9 42.6-4.45 45.45-4.45L45.45-4.45Q48.4-4.45 50.05-5.88 51.7-7.3 51.7-9.55L51.7-9.55Q51.7-11.3 50.67-12.4 49.65-13.5 48.12-14.1 46.6-14.7 43.9-15.4L43.9-15.4Q40.5-16.3 38.37-17.23 36.25-18.15 34.75-20.1 33.25-22.05 33.25-25.3L33.25-25.3Q33.25-28.3 34.75-30.55 36.25-32.8 38.95-34 41.65-35.2 45.2-35.2L45.2-35.2Q50.25-35.2 53.47-32.68 56.7-30.15 57.05-25.75L57.05-25.75 50.75-25.75Q50.6-27.65 48.95-29 47.3-30.35 44.6-30.35L44.6-30.35Q42.15-30.35 40.6-29.1 39.05-27.85 39.05-25.5L39.05-25.5Q39.05-23.9 40.02-22.88 41-21.85 42.5-21.25 44-20.65 46.6-19.95L46.6-19.95Q50.05-19 52.22-18.05 54.4-17.1 55.92-15.13 57.45-13.15 57.45-9.85L57.45-9.85Q57.45-7.2 56.02-4.85 54.6-2.5 51.87-1.07 49.15 0.35 45.45 0.35L45.45 0.35Z" opacity="1" transform="matrix(1,0,0,1,0,0)" fill="#000000" class="wordmark-text-0" data-fill-palette-color="quaternary" id="text-0"></path></svg></g></svg></g></svg></g></svg></g><g></g></svg></g><defs></defs></svg><rect width="395.52" height="230.51439238095236" fill="none" stroke="none" visibility="hidden"></rect></g></svg></g></svg>