<svg xmlns="http://www.w3.org/2000/svg" version="1.1" xmlns:xlink="http://www.w3.org/1999/xlink" xmlns:svgjs="http://svgjs.dev/svgjs" width="1500" height="787" viewBox="0 0 1500 787"><g transform="matrix(1,0,0,1,-0.9084522071641459,0.07996718663650881)"><svg viewBox="0 0 396 208" data-background-color="#000000" preserveAspectRatio="xMidYMid meet" height="787" width="1500" xmlns="http://www.w3.org/2000/svg" xmlns:xlink="http://www.w3.org/1999/xlink"><g id="tight-bounds" transform="matrix(1,0,0,1,0.24008861730862918,-0.021134910826418718)"><svg viewBox="0 0 395.52 208.04226982165284" height="208.04226982165284" width="395.52"><g><svg viewBox="0 0 395.52 208.04226982165284" height="208.04226982165284" width="395.52"><g><svg viewBox="0 0 395.52 208.04226982165284" height="208.04226982165284" width="395.52"><g id="textblocktransform"><svg viewBox="0 0 395.52 208.04226982165284" height="208.04226982165284" width="395.52" id="textblock"><g><svg viewBox="0 0 395.52 208.04226982165284" height="208.04226982165284" width="395.52"><path d="M394.594 44.621C392.735 23.026 387.435 17.023 387.435 17.023 371.165-5.22 350.86-0.425 332.619 2.771 300.414 2.9 268.339 7.651 236.208 10.199 168.767 10.588 100.749 4.196 33.643 19.96 27.339 24.797-6.54 20.91 1.121 47.385 3.129 58.399 10.456 70.621 10.232 80.727 11.236 82.498 12.631 78.438 13.226 80.987 15.309 87.854 18.711 84.614 21.501 88.674 17.614 99.515 20.403 108.541 23.062 118 18.377 120.462 12.371 119.296 9.675 127.458 9.396 133.375 7.89 132.252 6.235 131.993 5.026 131.821 2.59 132.468 2.999 134.326 4.394 140.674-1.594 144.345 2.162 150.565-0.422 157.302 3.948 163.133 3.353 170.432 3.278 171.9 3.687 173.153 4.338 173.498 7.22 175.355 3.018 178.983 3.464 182.914 33.029 209.777 65.104 191.206 95.394 203.558 103.259 194.92 97.346 206.625 100.489 204.811 102.943 202.694 104.728 211.462 107.499 206.495 107.927 205.07 107.276 201.701 108.8 202.349 109.6 202.694 110.307 202.608 110.418 200.621 110.586 197.641 109.117 199.498 108.726 197.944 112.947 190.083 111.906 208.784 115.866 208.007 115.68 205.718 114.528 202.435 116.889 202.867 119.232 199.585 119.306 196.864 121.389 204.249 121.463 205.847 121.835 206.97 122.43 207.748 128.938 199.714 135.409 210.598 142.233 206.97 146.417 202.997 150.433 209.13 154.672 207.618 156.16 206.409 157.666 204.249 159.098 207.877 176.632 208.655 195.319 205.415 211.943 208.007 256.364 203.169 303.836 209.993 350.674 203.601 361.719 201.14 373.192 197.641 383.958 194.834 383.958 194.834 392.679 187.146 392.679 152.595S394.538 122.362 394.817 94.85C395.096 67.339 396.398 66.216 394.538 44.621Z" opacity="1" fill="#deddf1" data-fill-palette-color="tertiary"></path><g transform="matrix(1,0,0,1,55.76832,26.230666666666668)"><svg width="283.98335999999995" viewBox="0 -36 66.35 36.35" height="155.5809364883195" data-palette-color="#000000"><path d="M24-35.4L36.5-35.4 23.8-10.75 23.8 0 12.7 0 12.7-10.75 0-35.4 12.7-35.4 18.35-22.85 24-35.4ZM52.85 0.35Q46.5 0.35 42.37-2.63 38.25-5.6 37.9-11.35L37.9-11.35 49.7-11.35Q49.95-8.3 52.4-8.3L52.4-8.3Q53.3-8.3 53.92-8.72 54.55-9.15 54.55-10.05L54.55-10.05Q54.55-11.3 53.2-12.08 51.85-12.85 49-13.85L49-13.85Q45.6-15.05 43.37-16.2 41.15-17.35 39.55-19.55 37.95-21.75 38-25.2L38-25.2Q38-28.65 39.77-31.08 41.55-33.5 44.62-34.75 47.7-36 51.55-36L51.55-36Q58.05-36 61.87-33 65.7-30 65.9-24.55L65.9-24.55 53.95-24.55Q53.9-26.05 53.2-26.7 52.5-27.35 51.5-27.35L51.5-27.35Q50.8-27.35 50.35-26.88 49.9-26.4 49.9-25.55L49.9-25.55Q49.9-24.35 51.22-23.58 52.55-22.8 55.45-21.7L55.45-21.7Q58.8-20.45 60.97-19.3 63.15-18.15 64.75-16.1 66.35-14.05 66.35-10.95L66.35-10.95Q66.35-7.7 64.75-5.13 63.15-2.55 60.1-1.1 57.05 0.35 52.85 0.35L52.85 0.35Z" opacity="1" transform="matrix(1,0,0,1,0,0)" fill="#000000" class="wordmark-text-0" data-fill-palette-color="quaternary" id="text-0"></path></svg></g></svg></g></svg></g></svg></g><g></g></svg></g><defs></defs></svg><rect width="395.52" height="208.04226982165284" fill="none" stroke="none" visibility="hidden"></rect></g></svg></g></svg>